/* XPM */
static char *b83402e2a2884271be778d81fdc30a984KhzhS3WBxGLhNP1[] = {
/* columns rows colors chars-per-pixel */
"96 96 9 1 ",
"  c #669344",
". c #809D49",
"X c black",
"o c #696A6A",
"O c #847E87",
"+ c #595652",
"@ c #9A3333",
"# c #AC3232",
"$ c #5B6EE1",
/* pixels */
"      ......            ........................                              ............      ",
"      ......            ........................                              ............      ",
"      ......            ........................                              ............      ",
"      ......            ........................                              ............      ",
"      ......            ........................                              ............      ",
"      ......            ........................                              ............      ",
"      ......      ............      ............      ......                  ............      ",
"      ......      ............      ............      ......                  ............      ",
"      ......      ............      ............      ......                  ............      ",
"      ......      ............      ............      ......                  ............      ",
"      ......      ............      ............      ......                  ............      ",
"      ......      ............      ............      ......                  ............      ",
"..............................      ......            ......            ........................",
"..............................      ......            ......            ........................",
"..............................      ......            ......            ........................",
"..............................      ......            ......            ........................",
"..............................      ......            ......            ........................",
"..............................      ......            ......            ........................",
"....................................                  ..........................................",
"....................................                  ..........................................",
"....................................                  ..........................................",
"....................................                  ..........................................",
"....................................                  ..........................................",
"....................................                  ..........................................",
"..............................                  ........................      ..................",
"..............................                  ........................      ..................",
"..............................                  ........................      ..................",
"..............................                  ........................      ..................",
"..............................                  ........................      ..................",
"..............................                  ........................      ..................",
"      ............      ......      XXXXXXXXXXXXXXXXXXXXXXXX......      ........................",
"      ............      ......      XXXXXXXXXXXXXXXXXXXXXXXX......      ........................",
"      ............      ......      XXXXXXXXXXXXXXXXXXXXXXXX......      ........................",
"      ............      ......XXXXXXoooOOOOOOOOOOOOOOOOOOOOOXXXXXX      ........................",
"      ............      ......XXXXXXoooOOOOOOOOOOOOOOOOOOOOOXXXXXX      ........................",
"      ............      ......XXXXXXoooOOOOOOOOOOOOOOOOOOOOOXXXXXX      ........................",
"............      .........XXXoooOOOOOOOOOOOOOOOOOOOOO+++OOOOOOoooXXX   ..................      ",
"............      .........XXXoooOOOOOOOOOOOOOOOOOOOOO+++OOOOOOoooXXX   ..................      ",
"............      .........XXXoooOOOOOOOOOOOOOOOOOOOOO+++OOOOOOoooXXX   ..................      ",
"............      .........XXXooooooOOOOOOOOOOOOOOOOOOOOOOOOooooooXXX   ..................      ",
"............      .........XXXooooooOOOOOOOOOOOOOOOOOOOOOOOOooooooXXX   ..................      ",
"............      .........XXXooooooOOOOOOOOOOOOOOOOOOOOOOOOooooooXXX   ..................      ",
"...........................XXXXXXXXXooooooooooooooooooooooooXXXXXXXXX...............            ",
"...........................XXXXXXXXXooooooooooooooooooooooooXXXXXXXXX...............            ",
"...........................XXXXXXXXXooooooooooooooooooooooooXXXXXXXXX...............            ",
"...........................XXX@@@###XXXXXXXXXXXXXXXXXXXXXXXX######XXX...............            ",
"...........................XXX@@@###XXXXXXXXXXXXXXXXXXXXXXXX######XXX...............            ",
"...........................XXX@@@###XXXXXXXXXXXXXXXXXXXXXXXX######XXX...............            ",
"...........................XXX@@@#################################XXX...........................",
"...........................XXX@@@#################################XXX...........................",
"...........................XXX@@@#################################XXX...........................",
"...........................XXX@@@@@@$$$$$$###$$$$$$$$$$$$#########XXX...........................",
"...........................XXX@@@@@@$$$$$$###$$$$$$$$$$$$#########XXX...........................",
"...........................XXX@@@@@@$$$$$$###$$$$$$$$$$$$#########XXX...........................",
"...........................XXX@@@@@@@@@$$$$$$$$$$$$$$$$$$$$$######XXX...........................",
"...........................XXX@@@@@@@@@$$$$$$$$$$$$$$$$$$$$$######XXX...........................",
"...........................XXX@@@@@@@@@$$$$$$$$$$$$$$$$$$$$$######XXX...........................",
"...........................XXX@@@@@@$$$$$$@@@$$$$$$$$$$$$#########XXX...........................",
"...........................XXX@@@@@@$$$$$$@@@$$$$$$$$$$$$#########XXX...........................",
"...........................XXX@@@@@@$$$$$$@@@$$$$$$$$$$$$#########XXX...........................",
"............      ............XXXXXX@@@@@@@@@@@@@@@@@@@@@@@@XXXXXX......            ............",
"............      ............XXXXXX@@@@@@@@@@@@@@@@@@@@@@@@XXXXXX......            ............",
"............      ............XXXXXX@@@@@@@@@@@@@@@@@@@@@@@@XXXXXX......            ............",
"............      ..................XXXXXXXXXXXXXXXXXXXXXXXX............            ............",
"............      ..................XXXXXXXXXXXXXXXXXXXXXXXX............            ............",
"............      ..................XXXXXXXXXXXXXXXXXXXXXXXX............            ............",
"......      ................................................      ......      ..................",
"......      ................................................      ......      ..................",
"......      ................................................      ......      ..................",
"......      ................................................      ......      ..................",
"......      ................................................      ......      ..................",
"......      ................................................      ......      ..................",
"      ......................................................      ..................            ",
"      ......................................................      ..................            ",
"      ......................................................      ..................            ",
"      ......................................................      ..................            ",
"      ......................................................      ..................            ",
"      ......................................................      ..................            ",
"..........................................            ............      ............            ",
"..........................................            ............      ............            ",
"..........................................            ............      ............            ",
"..........................................            ............      ............            ",
"..........................................            ............      ............            ",
"..........................................            ............      ............            ",
"            ............      ......            ............                        ............",
"            ............      ......            ............                        ............",
"            ............      ......            ............                        ............",
"            ............      ......            ............                        ............",
"            ............      ......            ............                        ............",
"            ............      ......            ............                        ............",
"      ......            ............            ......                              ............",
"      ......            ............            ......                              ............",
"      ......            ............            ......                              ............",
"      ......            ............            ......                              ............",
"      ......            ............            ......                              ............",
"      ......            ............            ......                              ............"
};
