/* XPM */
static char *exit[] = {
/* columns rows colors chars-per-pixel */
"96 96 5 1 ",
"  c #181425",
". c #2A2F4E",
"X c #424C6E",
"o c #657392",
"O c #92A1B9",
/* pixels */
"                                                                                                ",
"                                                                                                ",
"                                                                                                ",
"                                                                                                ",
"                                                                                                ",
"                                                                                                ",
"                                                                                                ",
"                                                                                                ",
"                                                                                                ",
"                                                                                                ",
"                                                                                                ",
"                                                                                                ",
"      ooooooOOOOOOOOOOOO                                                                        ",
"      ooooooOOOOOOOOOOOO                                                                        ",
"      ooooooOOOOOOOOOOOO                                                                        ",
"      ooooooOOOOOOOOOOOO                                                                        ",
"      ooooooOOOOOOOOOOOO                                                                        ",
"      ooooooOOOOOOOOOOOO                                                                        ",
"      XXXXXXooooooOOOOOO                                                                        ",
"      XXXXXXooooooOOOOOO                                                                        ",
"      XXXXXXooooooOOOOOO                                                                        ",
"      XXXXXXooooooOOOOOO                                                                        ",
"      XXXXXXooooooOOOOOO                                                                        ",
"      XXXXXXooooooOOOOOO                                                                        ",
"      XXXXXXoooooooooooo                                                                        ",
"      XXXXXXoooooooooooo                                                                        ",
"      XXXXXXoooooooooooo                                                                        ",
"      XXXXXXoooooooooooo                                                                        ",
"      XXXXXXoooooooooooo                                                                        ",
"      XXXXXXoooooooooooo                                                                        ",
"      XXXXXXoooooooooooo......XXXXXXoooooooooooo                                                ",
"      XXXXXXoooooooooooo......XXXXXXoooooooooooo                                                ",
"      XXXXXXoooooooooooo......XXXXXXoooooooooooo                                                ",
"      XXXXXXoooooooooooo......XXXXXXoooooooooooo                                                ",
"      XXXXXXoooooooooooo......XXXXXXoooooooooooo                                                ",
"      XXXXXXoooooooooooo......XXXXXXoooooooooooo                                                ",
"      XXXXXXoooooooooooo............XXXXXXoooooo                                                ",
"      XXXXXXoooooooooooo............XXXXXXoooooo                                                ",
"      XXXXXXoooooooooooo............XXXXXXoooooo                                                ",
"      XXXXXXoooooooooooo............XXXXXXoooooo                                                ",
"      XXXXXXoooooooooooo............XXXXXXoooooo                                                ",
"      XXXXXXoooooooooooo............XXXXXXoooooo                                                ",
"      XXXXXXoooooooooooo............XXXXXXXXXXXX......XXXXXXoooooooooooo                        ",
"      XXXXXXoooooooooooo............XXXXXXXXXXXX......XXXXXXoooooooooooo                        ",
"      XXXXXXoooooooooooo............XXXXXXXXXXXX......XXXXXXoooooooooooo                        ",
"      XXXXXXoooooooooooo............XXXXXXXXXXXX......XXXXXXoooooooooooo                        ",
"      XXXXXXoooooooooooo............XXXXXXXXXXXX......XXXXXXoooooooooooo                        ",
"      XXXXXXoooooooooooo............XXXXXXXXXXXX......XXXXXXoooooooooooo                        ",
"      XXXXXXoooooooooooo............XXXXXXXXXXXX............XXXXXXoooooo                        ",
"      XXXXXXoooooooooooo............XXXXXXXXXXXX............XXXXXXoooooo                        ",
"      XXXXXXoooooooooooo............XXXXXXXXXXXX............XXXXXXoooooo                        ",
"      XXXXXXoooooooooooo............XXXXXXXXXXXX............XXXXXXoooooo                        ",
"      XXXXXXoooooooooooo............XXXXXXXXXXXX............XXXXXXoooooo                        ",
"      XXXXXXoooooooooooo............XXXXXXXXXXXX............XXXXXXoooooo                        ",
"      XXXXXXoooooooooooo............XXXXXXXXXXXX............XXXXXXXXXXXX      ......XXXXXX      ",
"      XXXXXXoooooooooooo............XXXXXXXXXXXX............XXXXXXXXXXXX      ......XXXXXX      ",
"      XXXXXXoooooooooooo............XXXXXXXXXXXX............XXXXXXXXXXXX      ......XXXXXX      ",
"      XXXXXXoooooooooooo............XXXXXXXXXXXX............XXXXXXXXXXXX      ......XXXXXX      ",
"      XXXXXXoooooooooooo............XXXXXXXXXXXX............XXXXXXXXXXXX      ......XXXXXX      ",
"      XXXXXXoooooooooooo............XXXXXXXXXXXX............XXXXXXXXXXXX      ......XXXXXX      ",
"      XXXXXXoooooooooooo............XXXXXXXXXXXX............XXXXXXXXXXXX            XXXXXX      ",
"      XXXXXXoooooooooooo............XXXXXXXXXXXX............XXXXXXXXXXXX            XXXXXX      ",
"      XXXXXXoooooooooooo............XXXXXXXXXXXX............XXXXXXXXXXXX            XXXXXX      ",
"      XXXXXXoooooooooooo............XXXXXXXXXXXX............XXXXXXXXXXXX            XXXXXX      ",
"      XXXXXXoooooooooooo............XXXXXXXXXXXX............XXXXXXXXXXXX            XXXXXX      ",
"      XXXXXXoooooooooooo............XXXXXXXXXXXX............XXXXXXXXXXXX            XXXXXX      ",
"      XXXXXXoooooooooooo............XXXXXXXXXXXX............XXXXXXXXXXXX            ......      ",
"      XXXXXXoooooooooooo............XXXXXXXXXXXX............XXXXXXXXXXXX            ......      ",
"      XXXXXXoooooooooooo............XXXXXXXXXXXX............XXXXXXXXXXXX            ......      ",
"      XXXXXXoooooooooooo............XXXXXXXXXXXX............XXXXXXXXXXXX            ......      ",
"      XXXXXXoooooooooooo............XXXXXXXXXXXX............XXXXXXXXXXXX            ......      ",
"      XXXXXXoooooooooooo............XXXXXXXXXXXX............XXXXXXXXXXXX            ......      ",
"      XXXXXXoooooooooooo............XXXXXXXXXXXX............XXXXXXXXXXXX            ......      ",
"      XXXXXXoooooooooooo............XXXXXXXXXXXX............XXXXXXXXXXXX            ......      ",
"      XXXXXXoooooooooooo............XXXXXXXXXXXX............XXXXXXXXXXXX            ......      ",
"      XXXXXXoooooooooooo............XXXXXXXXXXXX............XXXXXXXXXXXX            ......      ",
"      XXXXXXoooooooooooo............XXXXXXXXXXXX............XXXXXXXXXXXX            ......      ",
"      XXXXXXoooooooooooo............XXXXXXXXXXXX............XXXXXXXXXXXX            ......      ",
"      XXXXXXooooooOOOOOO............XXXXXXXXXXXX............XXXXXXXXXXXX            ......      ",
"      XXXXXXooooooOOOOOO............XXXXXXXXXXXX............XXXXXXXXXXXX            ......      ",
"      XXXXXXooooooOOOOOO............XXXXXXXXXXXX............XXXXXXXXXXXX            ......      ",
"      XXXXXXooooooOOOOOO............XXXXXXXXXXXX............XXXXXXXXXXXX            ......      ",
"      XXXXXXooooooOOOOOO............XXXXXXXXXXXX............XXXXXXXXXXXX            ......      ",
"      XXXXXXooooooOOOOOO............XXXXXXXXXXXX............XXXXXXXXXXXX            ......      ",
"      ooooooOOOOOOOOOOOO............XXXXXXoooooo............XXXXXXXXXXXX            ......      ",
"      ooooooOOOOOOOOOOOO............XXXXXXoooooo............XXXXXXXXXXXX            ......      ",
"      ooooooOOOOOOOOOOOO............XXXXXXoooooo............XXXXXXXXXXXX            ......      ",
"      ooooooOOOOOOOOOOOO............XXXXXXoooooo............XXXXXXXXXXXX            ......      ",
"      ooooooOOOOOOOOOOOO............XXXXXXoooooo............XXXXXXXXXXXX            ......      ",
"      ooooooOOOOOOOOOOOO............XXXXXXoooooo............XXXXXXXXXXXX            ......      ",
"                                                                                                ",
"                                                                                                ",
"                                                                                                ",
"                                                                                                ",
"                                                                                                ",
"                                                                                                "
};
