/* XPM */
static char *_f97eb388894421bfd4beefc9f18574aDF2ZGzyFwwtsGdaF[] = {
/* columns rows colors chars-per-pixel */
"96 96 3 1 ",
"  c #669344",
". c #809D49",
"X c white",
/* pixels */
"      ......            ........................                              ............      ",
"      ......            ........................                              ............      ",
"      ......            ........................                              ............      ",
"      ......            ........................                              ............      ",
"      ......            ........................                              ............      ",
"      ......            ........................                              ............      ",
"      ......      ............      ............      ......                  ............      ",
"      ......      ............      ............      ......                  ............      ",
"      ......      ............      ............      ......                  ............      ",
"      ......      ............      ............      ......                  ............      ",
"      ......      ............      ............      ......                  ............      ",
"      ......      ............      ............      ......                  ............      ",
"..............................      ......            ......            ........................",
"..............................      ......            ......            ........................",
"..............................      ......            ......            ........................",
"..............................      ......            ......            ........................",
"..............................      ......            ......            ........................",
"..............................      ......            ......            ........................",
"....................................                  ..........................................",
"....................................                  ..........................................",
"....................................                  ..........................................",
"....................................                  ..........................................",
"....................................                  ..........................................",
"....................................                  ..........................................",
"..............................                  ........................      ..................",
"..............................                  ........................      ..................",
"..............................                  ........................      ..................",
"..............................                  ........................      ..................",
"..............................                  ........................      ..................",
"..............................                  ........................      ..................",
"      ............      ......      ..............................      ........................",
"      ............      ......      ..............................      ........................",
"      ............      ......      ..............................      ........................",
"      ............      ......      ..............................      ........................",
"      ............      ......      ..............................      ........................",
"      ............      ......      ..............................      ........................",
"............      ..........................................            ..................      ",
"............      ..........................................            ..................      ",
"............      ..........................................            ..................      ",
"............      ..........................................            ..................      ",
"............      ..........................................            ..................      ",
"............      ..........................................            ..................      ",
"....................................................................................            ",
"....................................................................................            ",
"....................................................................................            ",
"....................................................................................            ",
"....................................................................................            ",
"....................................................................................            ",
"................................................................................................",
"................................................................................................",
"................................................................................................",
"................................................................................................",
"................................................................................................",
"................................................................................................",
"..........................................      ................................................",
"..........................................      ................................................",
"..........................................      ................................................",
"..........................................      ................................................",
"..........................................      ................................................",
"..........................................      ................................................",
"............      ........................      ........................            ............",
"............      ........................      ........................            ............",
"............      ........................      ........................            ............",
"............      ........................      ........................            ............",
"............      ........................      ........................            ............",
"............      ........................      ........................            ............",
"......      ................................................      ......      ..................",
"......      ................................................      ......      ..................",
"......      ................................................      ......      ..................",
"......      ................................................      ......      ..................",
"......      ................................................      ......      ..................",
"......      ................................................      ......      ..................",
"      ......................................................      ..................            ",
"      ......................................................      ..................            ",
"      ......................................................      ..................            ",
"      ......................................................      ..................            ",
"      ......................................................      ..................            ",
"      ......................................................      ..................            ",
"..........................................            ............      ............            ",
"..........................................            ............      ............            ",
"..........................................            ............      ............            ",
"..........................................            ............      ............            ",
"..........................................            ............      ............            ",
"..........................................            ............      ............            ",
"            ............      ......            ............                        ............",
"            ............      ......            ............                        ............",
"            ............      ......            ............                        ............",
"            ............      ......            ............                        ............",
"            ............      ......            ............                        ............",
"            ............      ......            ............                        ............",
"      ......            ............            ......                              ............",
"      ......            ............            ......                              ............",
"      ......            ............            ......                              ............",
"      ......            ............            ......                              ............",
"      ......            ............            ......                              ............",
"      ......            ............            ......                              ............"
};
