/* XPM */
static char *d5b27dee27bc4e99abd8978fbab593115FBCrHZzTeDswYCo[] = {
/* columns rows colors chars-per-pixel */
"96 96 10 1 ",
"  c #669344",
". c #809D49",
"X c #2F5538",
"o c #55864A",
"O c #243D34",
"+ c #40713C",
"@ c #24161A",
"# c #452A2F",
"$ c #381C24",
"% c white",
/* pixels */
"      ......            ..................      XXXXXX                        ............      ",
"      ......            ..................      XXXXXX                        ............      ",
"      ......            ..................      XXXXXX                        ............      ",
"      ......            ..................      XXXXXX                        ............      ",
"      ......            ..................      XXXXXX                        ............      ",
"      ......            ..................      XXXXXX                        ............      ",
"      ......      ............            XXXXXXooooooXXXXXX                  ............      ",
"      ......      ............            XXXXXXooooooXXXXXX                  ............      ",
"      ......      ............            XXXXXXooooooXXXXXX                  ............      ",
"      ......      ............            XXXXXXooooooXXXXXX                  ............      ",
"      ......      ............            XXXXXXooooooXXXXXX                  ............      ",
"      ......      ............            XXXXXXooooooXXXXXX                  ............      ",
"..............................      XXXXXXoooooo            XXXXXX      ........................",
"..............................      XXXXXXoooooo            XXXXXX      ........................",
"..............................      XXXXXXoooooo            XXXXXX      ........................",
"..............................      XXXXXXoooooo            XXXXXX      ........................",
"..............................      XXXXXXoooooo            XXXXXX      ........................",
"..............................      XXXXXXoooooo            XXXXXX      ........................",
"..............................ooooooXXXXXX                  XXXXXXoooooo........................",
"..............................ooooooXXXXXX                  XXXXXXoooooo........................",
"..............................ooooooXXXXXX                  XXXXXXoooooo........................",
"..............................ooooooXXXXXX                  XXXXXXoooooo........................",
"..............................ooooooXXXXXX                  XXXXXXoooooo........................",
"..............................ooooooXXXXXX                  XXXXXXoooooo........................",
"........................      XXXXXXoooooo                        XXXXXX      ..................",
"........................      XXXXXXoooooo                        XXXXXX      ..................",
"........................      XXXXXXoooooo                        XXXXXX      ..................",
"........................      XXXXXXoooooo                        XXXXXX      ..................",
"........................      XXXXXXoooooo                        XXXXXX      ..................",
"........................      XXXXXXoooooo                        XXXXXX      ..................",
"      ............      ......XXXXXXoooooo                        XXXXXX........................",
"      ............      ......XXXXXXoooooo                        XXXXXX........................",
"      ............      ......XXXXXXoooooo                        XXXXXX........................",
"      ............      ......XXXXXXoooooo                        XXXXXX........................",
"      ............      ......XXXXXXoooooo                        XXXXXX........................",
"      ............      ......XXXXXXoooooo                        XXXXXX........................",
"............            ......OOOOOO++++++oooooo      oooooo++++++OOOOOO..................      ",
"............            ......OOOOOO++++++oooooo      oooooo++++++OOOOOO..................      ",
"............            ......OOOOOO++++++oooooo      oooooo++++++OOOOOO..................      ",
"............            ......OOOOOO++++++oooooo      oooooo++++++OOOOOO..................      ",
"............            ......OOOOOO++++++oooooo      oooooo++++++OOOOOO..................      ",
"............            ......OOOOOO++++++oooooo      oooooo++++++OOOOOO..................      ",
"..................      OOOOOO++++++++++++++++++XXXXXXXXXXXX++++++++++++OOOOOO......            ",
"..................      OOOOOO++++++++++++++++++XXXXXXXXXXXX++++++++++++OOOOOO......            ",
"..................      OOOOOO++++++++++++++++++XXXXXXXXXXXX++++++++++++OOOOOO......            ",
"..................      OOOOOO++++++++++++++++++XXXXXXXXXXXX++++++++++++OOOOOO......            ",
"..................      OOOOOO++++++++++++++++++XXXXXXXXXXXX++++++++++++OOOOOO......            ",
"..................      OOOOOO++++++++++++++++++XXXXXXXXXXXX++++++++++++OOOOOO......            ",
"..................      XXXXXX++++++++++++ooooooooooooooooooooooooooooooXXXXXX..................",
"..................      XXXXXX++++++++++++ooooooooooooooooooooooooooooooXXXXXX..................",
"..................      XXXXXX++++++++++++ooooooooooooooooooooooooooooooXXXXXX..................",
"..................      XXXXXX++++++++++++ooooooooooooooooooooooooooooooXXXXXX..................",
"..................      XXXXXX++++++++++++ooooooooooooooooooooooooooooooXXXXXX..................",
"..................      XXXXXX++++++++++++ooooooooooooooooooooooooooooooXXXXXX..................",
"..................      XXXXXX++++++oooooooooooooooooooooooooooooo++++++XXXXXX..................",
"..................      XXXXXX++++++oooooooooooooooooooooooooooooo++++++XXXXXX..................",
"..................      XXXXXX++++++oooooooooooooooooooooooooooooo++++++XXXXXX..................",
"..................      XXXXXX++++++oooooooooooooooooooooooooooooo++++++XXXXXX..................",
"..................      XXXXXX++++++oooooooooooooooooooooooooooooo++++++XXXXXX..................",
"..................      XXXXXX++++++oooooooooooooooooooooooooooooo++++++XXXXXX..................",
"........................OOOOOOXXXXXX++++++oooooooooooooooooo++++++XXXXXXOOOOOO..................",
"........................OOOOOOXXXXXX++++++oooooooooooooooooo++++++XXXXXXOOOOOO..................",
"........................OOOOOOXXXXXX++++++oooooooooooooooooo++++++XXXXXXOOOOOO..................",
"........................OOOOOOXXXXXX++++++oooooooooooooooooo++++++XXXXXXOOOOOO..................",
"........................OOOOOOXXXXXX++++++oooooooooooooooooo++++++XXXXXXOOOOOO..................",
"........................OOOOOOXXXXXX++++++oooooooooooooooooo++++++XXXXXXOOOOOO..................",
"......      ............ooooooOOOOOO@@@@@@XXXXXXXXXXXXXXXXXX@@@@@@OOOOOOoooooo..................",
"......      ............ooooooOOOOOO@@@@@@XXXXXXXXXXXXXXXXXX@@@@@@OOOOOOoooooo..................",
"......      ............ooooooOOOOOO@@@@@@XXXXXXXXXXXXXXXXXX@@@@@@OOOOOOoooooo..................",
"......      ............ooooooOOOOOO@@@@@@XXXXXXXXXXXXXXXXXX@@@@@@OOOOOOoooooo..................",
"......      ............ooooooOOOOOO@@@@@@XXXXXXXXXXXXXXXXXX@@@@@@OOOOOOoooooo..................",
"......      ............ooooooOOOOOO@@@@@@XXXXXXXXXXXXXXXXXX@@@@@@OOOOOOoooooo..................",
"      ..................      XXXXXX@@@@@@############$$$$$$@@@@@@XXXXXXoooooo......            ",
"      ..................      XXXXXX@@@@@@############$$$$$$@@@@@@XXXXXXoooooo......            ",
"      ..................      XXXXXX@@@@@@############$$$$$$@@@@@@XXXXXXoooooo......            ",
"      ..................      XXXXXX@@@@@@############$$$$$$@@@@@@XXXXXXoooooo......            ",
"      ..................      XXXXXX@@@@@@############$$$$$$@@@@@@XXXXXXoooooo......            ",
"      ..................      XXXXXX@@@@@@############$$$$$$@@@@@@XXXXXXoooooo......            ",
"........................      ++++++XXXXXX@@@@@@@@@@@@@@@@@@XXXXXX++++++oooooo......            ",
"........................      ++++++XXXXXX@@@@@@@@@@@@@@@@@@XXXXXX++++++oooooo......            ",
"........................      ++++++XXXXXX@@@@@@@@@@@@@@@@@@XXXXXX++++++oooooo......            ",
"........................      ++++++XXXXXX@@@@@@@@@@@@@@@@@@XXXXXX++++++oooooo......            ",
"........................      ++++++XXXXXX@@@@@@@@@@@@@@@@@@XXXXXX++++++oooooo......            ",
"........................      ++++++XXXXXX@@@@@@@@@@@@@@@@@@XXXXXX++++++oooooo......            ",
"            ..................      ++++++++++++++++++++++++++++++oooooo            ............",
"            ..................      ++++++++++++++++++++++++++++++oooooo            ............",
"            ..................      ++++++++++++++++++++++++++++++oooooo            ............",
"            ..................      ++++++++++++++++++++++++++++++oooooo            ............",
"            ..................      ++++++++++++++++++++++++++++++oooooo            ............",
"            ..................      ++++++++++++++++++++++++++++++oooooo            ............",
"      ......            ............                                                ............",
"      ......            ............                                                ............",
"      ......            ............                                                ............",
"      ......            ............                                                ............",
"      ......            ............                                                ............",
"      ......            ............                                                ............"
};
